<?xml version="1.0" standalone="no"?>
<!DOCTYPE svg PUBLIC "-//W3C//DTD SVG 20010904//EN"
 "http://www.w3.org/TR/2001/REC-SVG-20010904/DTD/svg10.dtd">
<svg version="1.0" xmlns="http://www.w3.org/2000/svg"
 width="260.000000pt" height="280.000000pt" viewBox="0 0 260.000000 280.000000"
 preserveAspectRatio="xMidYMid meet">
<metadata>
Created by potrace 1.16, written by Peter Selinger 2001-2019
</metadata>
<g transform="translate(0.000000,280.000000) scale(0.100000,-0.100000)"
fill="#000000" stroke="none">
<path d="M730 2480 c-13 -13 -18 -29 -15 -47 2 -16 7 -64 10 -108 5 -81 5 -81
-27 -90 -35 -11 -50 -47 -29 -68 6 -6 11 -28 11 -48 0 -70 39 -132 105 -166
68 -36 190 -8 233 54 23 33 42 87 42 118 0 12 9 30 20 40 11 10 20 24 20 31 0
21 -30 44 -57 44 -26 0 -26 0 -20 83 4 46 10 97 13 114 11 55 -10 63 -157 63
-115 0 -131 -2 -149 -20z"/>
<path d="M2102 2180 c-31 -68 -83 -104 -206 -142 -130 -40 -184 -67 -229 -117
-41 -45 -62 -83 -87 -155 -12 -35 -22 -49 -31 -46 -16 6 -134 6 -224 1 -57 -3
-65 -1 -163 53 -266 145 -290 148 -508 76 -175 -59 -204 -78 -204 -134 0 -53
21 -60 155 -52 112 7 112 7 118 -216 3 -123 11 -271 18 -329 14 -133 1 -189
-73 -301 -56 -86 -97 -179 -98 -220 0 -32 41 -68 79 -68 51 0 115 52 176 144
81 123 119 216 112 278 -8 63 7 63 65 0 44 -47 44 -47 56 -192 11 -139 23
-199 46 -229 30 -39 110 -30 147 17 20 25 21 34 14 137 -20 346 -23 354 -157
511 -110 129 -110 129 -105 253 3 68 8 126 11 128 3 3 36 -7 73 -22 145 -59
174 -60 342 -15 121 33 141 50 163 139 48 196 117 270 303 321 142 40 198 79
246 172 11 21 17 43 14 48 -13 21 -31 8 -53 -40z"/>
<path d="M626 143 c-3 -3 -6 -19 -6 -35 0 -15 -5 -28 -10 -28 -6 0 -10 8 -8
18 2 10 -3 17 -12 17 -11 0 -15 -10 -14 -35 0 -21 5 -35 12 -34 7 1 21 2 32 3
13 0 20 8 20 21 0 11 5 20 10 20 6 0 10 -8 10 -19 0 -22 45 -34 72 -20 9 5 19
6 22 1 5 -9 53 -8 63 1 3 4 12 2 19 -4 17 -14 35 -3 27 16 -3 8 0 15 6 15 6 0
11 -7 11 -15 0 -22 17 -18 23 5 7 28 27 25 27 -5 0 -27 9 -32 27 -14 6 6 17 8
24 3 19 -11 62 -12 77 -1 7 5 17 6 25 1 10 -8 66 -10 112 -5 5 1 0 8 -12 16
-13 9 -20 22 -17 30 4 8 2 15 -4 15 -5 0 -12 9 -15 20 -7 25 -27 26 -27 1 0
-22 -48 -35 -67 -19 -9 7 -17 7 -27 -1 -11 -10 -16 -9 -24 5 -14 25 -35 7 -27
-23 4 -18 2 -24 -7 -21 -7 3 -13 13 -13 24 0 15 -6 18 -35 16 -19 -1 -47 -2
-63 -2 -19 0 -30 -6 -36 -22 -5 -13 -10 -17 -15 -10 -3 6 -2 13 3 17 19 11 0
33 -27 30 -42 -4 -62 -16 -62 -36 0 -10 -4 -19 -10 -19 -5 0 -10 9 -10 20 0
15 -7 20 -25 20 -15 0 -25 6 -25 14 0 17 -14 28 -24 19z m164 -69 c0 -16 -16
-19 -25 -4 -8 13 4 32 16 25 5 -4 9 -13 9 -21z m330 6 c0 -13 -5 -18 -15 -14
-16 7 -19 17 -8 27 12 13 23 7 23 -13z m-70 0 c0 -5 -4 -10 -10 -10 -5 0 -10
5 -10 10 0 6 5 10 10 10 6 0 10 -4 10 -10z"/>
<path d="M1577 133 c-4 -3 -7 -15 -7 -25 0 -10 -5 -18 -11 -18 -6 0 -8 7 -5
15 9 24 -23 31 -39 9 -29 -39 -12 -64 39 -55 4 1 13 -2 20 -7 6 -4 29 -8 51
-7 32 0 42 5 52 25 12 24 14 23 26 -20 2 -10 9 -5 20 17 19 37 32 47 48 38 7
-5 3 -16 -12 -31 -19 -21 -20 -24 -5 -30 9 -3 23 -3 32 0 13 5 14 9 5 20 -8
10 -9 16 -1 21 5 3 10 0 10 -8 0 -28 26 -40 52 -23 16 10 28 12 38 6 26 -17
31 -11 26 31 -6 53 -11 56 -31 25 -22 -33 -35 -33 -35 -1 0 31 -15 32 -31 3
-12 -22 -12 -22 -20 0 -9 23 -33 30 -44 12 -4 -7 -13 -6 -26 1 -15 7 -24 7
-35 -2 -11 -9 -17 -9 -29 1 -12 10 -18 10 -30 0 -12 -10 -19 -10 -27 -2 -14
14 -22 15 -31 5z m77 -39 c4 -9 4 -19 2 -22 -10 -9 -36 8 -36 23 0 20 26 19
34 -1z"/>
<path d="M1937 133 c-12 -11 -8 -41 6 -46 9 -3 9 -7 -1 -19 -19 -23 5 -35 26
-14 14 13 14 20 4 36 -6 10 -9 26 -6 35 6 15 -16 22 -29 8z"/>
<path d="M1993 124 c-3 -9 -1 -25 5 -35 7 -11 8 -20 2 -24 -17 -10 -11 -25 10
-25 28 0 44 34 25 54 -9 9 -11 17 -5 21 17 11 11 25 -10 25 -11 0 -23 -7 -27
-16z"/>
<path d="M1215 111 c-10 -10 -4 -59 8 -63 11 -4 28 -4 97 1 13 1 20 8 20 23 0
12 3 18 8 14 4 -4 7 -13 7 -19 0 -6 13 -13 28 -14 26 -2 28 1 25 29 -3 30 -3
30 -96 32 -51 1 -95 0 -97 -3z m41 -38 c-10 -10 -19 5 -10 18 6 11 8 11 12 0
2 -7 1 -15 -2 -18z m44 7 c0 -5 -4 -10 -10 -10 -5 0 -10 5 -10 10 0 6 5 10 10
10 6 0 10 -4 10 -10z"/>
<path d="M1440 90 c0 -11 7 -20 15 -20 8 0 15 9 15 20 0 11 -7 20 -15 20 -8 0
-15 -9 -15 -20z"/>
</g>
</svg>
